# xmcd
#
# Track frame offsets:
#	150
#	29132
#	55232
#	74800
#	92500
#	115982
#	143950
#	164650
#	186305
#	209907
#
# Disc length: 3255 seconds
#
# Revision: 3950908794
# Processed by: cddbd v1.5.2PL0 Copyright (c) Steve Scherf et al.
# Submitted via: EZCDAudioConverter 8.0.2.1
#
DISCID=a80cb50a
DTITLE=Khánh Hà - Mùa Thu Cho Em
DYEAR=1998
DGENRE=Miscellaneous
TTITLE0=Anh đã quên mùa thu
TTITLE1=Bài không tên số 2
TTITLE2=Nỗi niềm
TTITLE3=Mùa Thu Cho Em
TTITLE4=Mắt biếc
TTITLE5=Nha Trang ngày về
TTITLE6=Thuyền viễn xứ
TTITLE7=Gửi gió cho mây ngàn bay
TTITLE8=Chiều tím
TTITLE9=Gợi giấc mơ xưa
EXTD=
EXTT0=
EXTT1=
EXTT2=
EXTT3=
EXTT4=
EXTT5=
EXTT6=
EXTT7=
EXTT8=
EXTT9=
PLAYORDER=
